# xmcd
#
# Track frame offsets:
#	150
#	45635
#	75985
#	128312
#	175202
#	196017
#	204840
#	217900
#	251822
#	272947
#	296697
#	314140
#	324445
#	334562
#
# Disc length: 4639 seconds
#
# Revision: 1
# Processed by: cddbd v1.5PL3 Copyright (c) Steve Scherf et al.
# Submitted via: CDex 1.50Beta5
#
DISCID=c3121d0e
DTITLE=Parliament/Funkadelic - Live 1976-93 3/4
DYEAR=1900
DGENRE=Blues
TTITLE0=Red Hot Mama
TTITLE1=Into You
TTITLE2=Standing On The Verge
TTITLE3=One Nation Under A Groove
TTITLE4=Comin' Round The Mountain
TTITLE5=Won't You Dance
TTITLE6=Quickie
TTITLE7=Aquaboogie
TTITLE8=I Wanna' Know If It's Good To You Baby
TTITLE9=Up For The Down Stroke
TTITLE10=Hit It Or Quit It
TTITLE11=Gamin' On Ya'
TTITLE12=Put Your Hands Together
TTITLE13=Dog You Out
EXTD=
EXTT0=
EXTT1=
EXTT2=
EXTT3=
EXTT4=
EXTT5=
EXTT6=
EXTT7=
EXTT8=
EXTT9=
EXTT10=
EXTT11=
EXTT12=
EXTT13=
PLAYORDER=
